<?xml version="1.0" encoding="UTF-8"?><svg id="Camada_2" xmlns="http://www.w3.org/2000/svg" viewBox="0 0 1773.11 1006.87"><defs><style>.cls-1{fill:#fff;}</style></defs><g id="Camada_1-2"><g id="BRANCO"><g><path class="cls-1" d="M3.95,1005.76v-157.59H61.22c17.16,0,31.52,3.52,43.06,10.54,11.54,7.03,20.2,16.5,25.97,28.41,5.77,11.91,8.66,25.12,8.66,39.62,0,15.98-3.19,29.89-9.54,41.73-6.36,11.84-15.35,21.01-26.97,27.52-11.62,6.51-25.34,9.77-41.17,9.77H3.95Zm104.1-79.02c0-10.21-1.85-19.2-5.55-26.97-3.7-7.77-9.03-13.83-15.98-18.2-6.96-4.36-15.39-6.55-25.3-6.55h-26.64v103.87h26.64c10.06,0,18.57-2.25,25.52-6.77,6.95-4.51,12.24-10.73,15.87-18.64,3.62-7.91,5.44-16.83,5.44-26.74Z"/><path class="cls-1" d="M318.24,1005.76v-157.59h30.63v157.59h-30.63Z"/><path class="cls-1" d="M602.56,1006.87c-10.21,0-19.86-2.07-28.96-6.21-9.1-4.14-17.09-9.88-23.97-17.2-6.88-7.33-12.25-15.87-16.09-25.64-3.85-9.77-5.77-20.34-5.77-31.74,0-10.8,1.92-20.97,5.77-30.52,3.85-9.54,9.25-17.94,16.2-25.19,6.95-7.25,15.09-12.95,24.42-17.09,9.32-4.14,19.46-6.21,30.41-6.21,14.79,0,27.48,3.14,38.07,9.43,10.58,6.29,18.53,14.61,23.86,24.97l-22.86,16.87c-4-7.84-9.58-13.83-16.76-17.98-7.18-4.14-14.98-6.21-23.42-6.21-6.66,0-12.73,1.41-18.2,4.22-5.48,2.81-10.21,6.66-14.21,11.54-4,4.88-7.07,10.51-9.21,16.87-2.15,6.36-3.22,13.1-3.22,20.2,0,7.55,1.14,14.5,3.44,20.86,2.29,6.36,5.55,11.91,9.77,16.65,4.22,4.74,9.13,8.47,14.76,11.21,5.62,2.74,11.84,4.11,18.64,4.11,7.99,0,15.65-2.07,22.97-6.21,7.33-4.14,14.17-10.21,20.53-18.2v30.19c-13.17,14.21-28.56,21.31-46.17,21.31Zm43.95-59.71h-31.74v-22.42h57.04v81.01h-25.3v-58.6Z"/><path class="cls-1" d="M853.36,1005.76v-157.59h30.63v157.59h-30.63Z"/><path class="cls-1" d="M1190.07,875.03h-50.38v130.73h-30.41v-130.73h-50.38v-26.86h131.18v26.86Z"/><path class="cls-1" d="M1393.16,848.17h31.07l57.93,157.59h-31.52l-13.1-39.29h-57.86l-13.16,39.29h-31.52l58.15-157.59Zm37.22,96.77l-21.68-65.03-21.79,65.03h43.47Z"/><path class="cls-1" d="M1654.84,1005.76v-157.59h30.63v130.73h80.35v26.86h-110.98Z"/></g><g id="LOGO"><path class="cls-1" d="M221.64,775.74H0V0H221.64V775.74Z"/><path class="cls-1" d="M554.1,775.74h-221.64V0h221.64V775.74Z"/><path class="cls-1" d="M886.56,775.74h-221.64V0h221.64V775.74Z"/><path class="cls-1" d="M1773.11,221.64H997.38V0h775.74V221.64Zm0,277.05H997.38v-221.64h775.74v221.64Zm0,277.05H997.38v-221.64h775.74v221.64Z"/></g></g></g></svg>